<?xml version="1.0" encoding="UTF-8"?>
<svg width="177px" height="42px" viewBox="0 0 177 42" version="1.1" xmlns="http://www.w3.org/2000/svg" xmlns:xlink="http://www.w3.org/1999/xlink">
    <!-- Generator: Sketch 56 (81588) - https://sketch.com -->
    <title>logo 2</title>
    <desc>Created with Sketch.</desc>
    <g id="Page-1" stroke="none" stroke-width="1" fill="none" fill-rule="evenodd">
        <g id="Desktop-HD" transform="translate(-703.000000, -1872.000000)" fill-rule="nonzero">
            <g id="logo-2" transform="translate(703.000000, 1872.000000)">
                <g id="logo">
                    <circle id="Oval" fill="#00BFD8" cx="20.816" cy="20.816" r="20.816"></circle>
                    <path d="M19.155,30.414 C18.0090079,30.4344307 16.870455,30.2260303 15.806,29.801 C13.8717948,29.016167 12.371397,27.4333658 11.691,25.46 C11.3199149,24.3960326 11.1361918,23.2757614 11.148,22.149 C11.1412688,20.5587698 11.4661829,18.9846056 12.102,17.527 C12.7200146,16.0929895 13.6077698,14.7910617 14.717,13.692 C15.8497335,12.5794427 17.1824299,11.6908653 18.645,11.073 C20.189537,10.4162628 21.8526934,10.0843803 23.531,10.098 C25.3279498,10.0039237 27.1069449,10.4951649 28.601,11.498 C29.8695944,12.4502467 30.5787321,13.9732044 30.491,15.557 C30.491,19.773 26.7243333,21.881 19.191,21.881 L17.805,21.881 C17.331,21.881 16.831,21.856 16.305,21.806 L16.305,22.293 C16.252809,23.4346627 16.5682677,24.5629533 17.205,25.512 C17.8858518,26.3746235 18.9538637,26.838405 20.049,26.747 C21.0352929,26.7498517 22.0065643,26.5054007 22.874,26.036 C23.7434981,25.5761908 24.4735831,24.8913476 24.988,24.053 L28.954,25.287 C28.4366051,26.0566265 27.8203309,26.7549361 27.121,27.364 C26.3973471,27.9999563 25.5995775,28.5462404 24.745,28.991 C23.8827841,29.4423875 22.9723479,29.7949551 22.031,30.042 C21.0922896,30.2890089 20.125665,30.4140382 19.155,30.414 Z M22.784,13.728 C22.0911902,13.721862 21.4042266,13.8551737 20.764,14.12 C20.1513254,14.37541 19.5881428,14.7361988 19.1,15.186 C18.6014608,15.6512851 18.1675916,16.1813454 17.81,16.762 C17.4356164,17.3601786 17.1335059,18.0006527 16.91,18.67 C17.31,18.696 17.698,18.709 18.07,18.709 L19.23,18.709 C20.2495142,18.7203233 21.2685107,18.6578267 22.279,18.522 C22.976932,18.4365427 23.658144,18.2471112 24.3,17.96 C24.7371418,17.7699888 25.116532,17.4682011 25.4,17.085 C25.6284618,16.7352589 25.7459272,16.3246529 25.737,15.907 C25.773482,15.2564885 25.4596407,14.6360512 24.914,14.28 C24.2709326,13.8894276 23.5267342,13.6977243 22.775,13.729 L22.775,13.729 L22.784,13.728 Z" id="Shape" fill="#FFFFFF"></path>
                    <path d="M164.68998,35.9985183 C163.44632,36.0206286 162.210734,35.7950953 161.05556,35.3351228 C158.956512,34.4857677 157.328242,32.7728424 156.589858,30.6372437 C156.187147,29.4858063 155.987766,28.2734361 156.000581,27.0540423 C155.993276,25.3330772 156.345881,23.629499 157.035886,22.0520619 C157.706571,20.5001596 158.669985,19.0911987 159.87375,17.9017817 C161.103021,16.6977597 162.549297,15.7361313 164.136515,15.0674705 C165.812686,14.356742 167.617585,13.9975751 169.438926,14.0123145 C171.389022,13.910504 173.319632,14.4421309 174.941019,15.5274102 C176.31773,16.5579424 177.087304,18.2061043 176.992095,19.9201057 C176.992095,24.4827083 172.904413,26.7640097 164.729048,26.7640097 L163.224926,26.7640097 C162.710529,26.7640097 162.167916,26.7369544 161.597088,26.6828438 L161.597088,27.2098807 C161.540449,28.4454009 161.882793,29.6664498 162.573791,30.6935187 C163.312668,31.6270595 164.471702,32.1289692 165.660172,32.0300496 C166.730522,32.0331357 167.78457,31.7685881 168.725933,31.2605974 C169.669535,30.7629867 170.461841,30.0218417 171.0201,29.1145725 L175.324103,30.4500212 C174.762613,31.2829196 174.093817,32.0386382 173.334885,32.697774 C172.549559,33.386013 171.683799,33.9772078 170.75639,34.4585317 C169.820691,34.9470283 168.832663,35.3285809 167.811088,35.5959357 C166.792376,35.8632515 165.74337,35.9985596 164.68998,35.9985183 Z M168.628263,17.9407413 C167.876408,17.9340987 167.130898,18.0783702 166.436108,18.3649681 C165.771218,18.6413757 165.160038,19.0318255 164.630293,19.5186053 C164.089265,20.0221421 163.61842,20.5957794 163.230352,21.2241703 C162.824061,21.8715259 162.496204,22.5646541 162.253649,23.2890293 C162.687739,23.3171668 163.108807,23.3312356 163.512511,23.3312356 L164.771372,23.3312356 C165.877775,23.3434898 166.983616,23.2758552 168.080224,23.1288621 C168.837638,23.0363792 169.576906,22.8313743 170.273465,22.5206593 C170.747862,22.315027 171.159586,21.9884291 171.467213,21.5737245 C171.715145,21.1952308 171.842622,20.7508683 171.832933,20.2988797 C171.872525,19.5948887 171.531936,18.9234446 170.939793,18.5381219 C170.24192,18.1154401 169.434297,17.9079766 168.618496,17.9418235 L168.618496,17.9418235 L168.628263,17.9407413 Z" id="Shape-Copy" fill="#393939"></path>
                    <polygon id="Path" fill="#393939" points="72.567 31.6 72.567 35.686 52.467 35.686 52.467 6.382 72.2 6.382 72.2 10.468 57.09 10.468 57.09 18.805 70.173 18.805 70.173 22.643 57.09 22.643 57.09 31.6"></polygon>
                    <polygon id="Path" fill="#393939" points="81.565 35.686 73.31 14.1 77.974 14.1 84.165 31.848 90.4 14.1 94.69 14.1 86.435 35.686"></polygon>
                    <polygon id="Path-Copy" fill="#393939" points="141.255 35.686 133 14.1 137.664 14.1 143.855 31.848 150.09 14.1 154.38 14.1 146.125 35.686"></polygon>
                    <path d="M106.865,36.1 C105.28485,36.1244601 103.717338,35.8150468 102.265,35.192 C99.6223678,34.0531343 97.5579575,31.8865326 96.548,29.192 C95.5023859,26.4399716 95.5023859,23.4000284 96.548,20.648 C97.0499246,19.318617 97.8152315,18.1043301 98.798,17.078 C99.7966759,16.0445387 100.988554,15.2172231 102.306,14.643 C105.225663,13.4315919 108.507337,13.4315919 111.427,14.643 C112.744612,15.2174508 113.936777,16.0447291 114.936,17.078 C115.917477,18.1051479 116.682313,19.3192277 117.185,20.648 C118.230614,23.4000284 118.230614,26.4399716 117.185,29.192 C116.681649,30.5206077 115.916125,31.7343593 114.934,32.761 C113.934985,33.794769 112.742785,34.6224116 111.425,35.197 C109.985564,35.8158064 108.431634,36.1235255 106.865,36.1 Z M100.426,24.96 C100.416918,25.945286 100.586318,26.9240747 100.926,27.849 C101.232846,28.6910684 101.694824,29.4681546 102.288,30.14 C102.859129,30.781229 103.554064,31.3003044 104.331,31.666 C105.941335,32.4094455 107.796665,32.4094455 109.407,31.666 C110.188179,31.2975874 110.88398,30.7703729 111.45,30.118 C112.040632,29.4368112 112.502173,28.6536828 112.812,27.807 C113.472233,25.9444451 113.472233,23.9115549 112.812,22.049 C112.505094,21.1946062 112.043386,20.4040754 111.45,19.717 C110.88364,19.0652459 110.187905,18.5384214 109.407,18.17 C108.613522,17.7961085 107.746131,17.6054057 106.869,17.612 C106.002118,17.6081762 105.14623,17.8060575 104.369,18.19 C103.589701,18.5716523 102.894707,19.1054782 102.325,19.76 C101.729956,20.4495999 101.261727,21.2391223 100.942,22.092 C100.594362,23.007931 100.41941,23.9803376 100.426,24.96 L100.426,24.96 Z" id="Shape" fill="#393939"></path>
                    <path d="M122.053,5.56 L126.593,5.56 L126.593,29.46 C126.552917,30.1419506 126.774276,30.8135377 127.212,31.338 C127.661932,31.8081305 128.295337,32.057399 128.945,32.02 C129.302406,32.0117811 129.657152,31.9562995 130,31.855 C130.4,31.7443333 130.778667,31.6203333 131.136,31.483 L131.796,35.033 C131.042532,35.3646727 130.252823,35.6069889 129.443,35.755 C128.641512,35.9226198 127.82575,36.0127019 127.007,36.024 C125.667046,36.1072533 124.350223,35.6460765 123.355,34.745 C122.439577,33.7652684 121.969198,32.4510997 122.055,31.113 L122.055,5.56 L122.055,5.56 L122.053,5.56 Z" id="Path" fill="#393939"></path>
                </g>
            </g>
        </g>
    </g>
</svg>